<svg xmlns="http://www.w3.org/2000/svg" xmlns:xlink="http://www.w3.org/1999/xlink" xml:space="preserve" version="1.1" style="shape-rendering:geometricPrecision;text-rendering:geometricPrecision;image-rendering:optimizeQuality;" viewBox="0 0 60000 75000" x="0px" y="0px" fill-rule="evenodd" clip-rule="evenodd"><defs><style type="text/css">
   
    .fil0 {fill:black;fill-rule:nonzero}
   
  </style></defs><g><path class="fil0" d="M30631 55031l-1222 0 0 -1c-191,0 -361,-137 -394,-332 -102,-594 -214,-1320 -332,-2081 -1078,-6975 -2631,-17019 -12938,-19563l0 -1c-174,-43 -303,-200 -303,-387l0 -104 0 0c0,-6950 1601,-13244 4189,-17806 1963,-3460 4498,-5935 7346,-6969 -351,-339 -768,-678 -1269,-1035 -56,-38 -104,-90 -136,-155 -98,-198 -16,-437 181,-534 1467,-726 2927,-1098 4412,-1094 1479,4 2975,380 4520,1151 62,27 118,70 161,128 131,177 94,427 -83,558 -540,400 -983,773 -1353,1144 2683,1120 5072,3527 6942,6829 2598,4585 4205,10910 4205,17887l-1 0c0,180 -122,343 -304,388 -10284,2545 -11829,12601 -12900,19576 -107,699 -210,1368 -325,2042 -21,201 -191,359 -398,359zm4 -41497l-111 11221c778,-4631 2545,-9260 6515,-13215 -1279,-1371 -2691,-2382 -4192,-2953 -208,268 -386,542 -541,832 -499,932 -783,2053 -1110,3648 4,22 6,45 6,68 0,221 -179,400 -400,400l-168 0zm-907 11196l110 -11196 -160 0c-215,0 -391,-170 -400,-383 -2,-8 -4,-15 -5,-23 -333,-1635 -605,-2800 -1104,-3764 -170,-328 -368,-635 -606,-934 -1610,515 -3126,1533 -4494,2961 3958,3881 5803,8598 6658,13339zm279 -11996l445 0c327,-1574 626,-2706 1153,-3690 133,-249 280,-486 444,-717 -674,-183 -1363,-278 -2065,-278l0 -2 -19 0c-529,1 -1052,57 -1566,163 180,253 338,514 480,788 518,1001 802,2155 1128,3736zm-2171 -5211c695,-177 1405,-271 2129,-272l19 0 0 -2c892,0 1764,138 2611,403 329,-360 713,-715 1171,-1082 -1232,-537 -2425,-800 -3600,-803 -1158,-3 -2304,247 -3458,737 439,343 810,678 1128,1020zm2199 31402l-15 0c3,54 5,108 7,162 2,-54 5,-108 8,-162zm-379 -4235c-19,-7330 -570,-16260 -7124,-22707 -796,920 -1536,1983 -2208,3168 -366,645 -711,1325 -1034,2038 7141,5010 9532,11232 10366,17501zm7914 -22551c-6009,6015 -6777,13718 -6840,20508 1076,-5548 3653,-10958 9973,-15415 -326,-720 -674,-1408 -1043,-2058 -639,-1128 -1339,-2145 -2090,-3034zm-7543 37818l-19 2c5,76 10,151 15,227 5,-76 10,-151 15,-227l-11 -1zm-720 -8358c-162,-8179 -1016,-17042 -10343,-23665 -708,1689 -1296,3544 -1743,5527 8632,4377 11126,11079 12086,18138zm11720 -23621c-9252,6606 -10116,15427 -10280,23575 968,-7028 3469,-13700 12018,-18061 -447,-1978 -1033,-3829 -1738,-5515zm1912 6322c-10828,5632 -11442,15282 -12021,24416 -56,889 -113,1774 -177,2648 1107,-7031 3043,-16360 13017,-19006 -19,-2827 -306,-5538 -818,-8059zm-25890 -31c-512,2529 -796,5251 -809,8089 10063,2661 11966,12090 13076,19136 -71,-935 -131,-1881 -191,-2833 -579,-9136 -1191,-18766 -12075,-24392zm-810 8286l0 7 0 -7zm-797 7c0,-95 -1,-58 -1,0l1 0zm-1 0c0,90 -1,228 -1,0l1 0z"/></g><text x="0" y="60015" fill="#000000" font-size="5px" font-weight="bold" font-family="'Helvetica Neue', Helvetica, Arial-Unicode, Arial, Sans-serif">Created by Olena Panasovska</text><text x="0" y="60020" fill="#000000" font-size="5px" font-weight="bold" font-family="'Helvetica Neue', Helvetica, Arial-Unicode, Arial, Sans-serif">from the Noun Project</text></svg>