<svg xmlns="http://www.w3.org/2000/svg" xmlns:xlink="http://www.w3.org/1999/xlink" xml:space="preserve" version="1.1" style="shape-rendering:geometricPrecision;text-rendering:geometricPrecision;image-rendering:optimizeQuality;" viewBox="0 0 60000 75000" x="0px" y="0px" fill-rule="evenodd" clip-rule="evenodd"><defs><style type="text/css">
   
    .fil0 {fill:black;fill-rule:nonzero}
   
  </style></defs><g><path class="fil0" d="M30000 42381l11806 -8768 -3840 -2852c-177,-131 -214,-381 -83,-558 26,-35 56,-64 89,-87l3916 -2908 -11888 -8829 -11888 8829 3916 2908c33,24 63,53 89,87 131,177 94,427 -83,558l-3840 2852 11806 8768zm-2699 -24929l-477 -643 642 -477 477 643 -642 477zm-381 25574l-477 642 -642 -477 477 -642 642 477zm-1285 -954l-477 642 -642 -477 477 -642 642 477zm-1285 -954l-477 642 -642 -477 477 -642 642 477zm-1285 -954l-477 642 -642 -477 477 -642 642 477zm-1285 -954l-477 642 -642 -477 477 -642 642 477zm-1285 -954l-477 642 -642 -477 477 -642 642 477zm-1285 -954l-477 642 -642 -477 477 -642 642 477zm-1284 -954l-477 642 -642 -477 477 -642 642 477zm-908 -11269l-477 -643 643 -477 477 643 -643 477zm1285 -953l-477 -643 643 -477 477 643 -643 477zm1285 -953l-477 -643 643 -477 477 643 -643 477zm1285 -953l-477 -643 643 -477 477 643 -643 477zm1285 -953l-477 -643 643 -477 477 643 -643 477zm1285 -953l-477 -643 643 -477 477 643 -643 477zm1285 -953l-477 -643 642 -477 477 643 -642 477zm1285 -953l-477 -643 642 -477 477 643 -642 477zm-12134 11946c5,22 8,44 10,67l3635 2699 3602 -2675 -3684 -2736 -3562 2646zm-757 491l-6730 0 7098 5271 3365 -2499 -3732 -2772zm-8068 0l-3699 0c-221,0 -400,-179 -400,-400 0,-221 179,-400 400,-400l3699 0 8191 -6083c138,-107 335,-114 482,-5l3714 2759 12312 -9144c138,-107 335,-114 482,-5l12319 9149 3714 -2759c147,-109 344,-102 482,5l8191 6083 3699 0c221,0 400,179 400,400 0,221 -179,400 -400,400l-3699 0 -8198 6088c-147,109 -344,102 -482,-5l-3790 -2814 -12230 9083c-138,107 -335,114 -482,5l-12237 -9088 -3790 2814c-138,107 -335,114 -482,5l-8198 -6088zm1338 -800l6566 0 3815 -2833 -3283 -2438 -7098 5271zm26782 -13232l-477 643 -642 -477 477 -643 642 477zm381 26858l-477 -642 642 -477 477 642 -642 477zm1285 -954l-477 -642 642 -477 477 642 -642 477zm1285 -954l-477 -642 642 -477 477 642 -642 477zm1285 -954l-477 -642 642 -477 477 642 -642 477zm1285 -954l-477 -642 642 -477 477 642 -642 477zm1285 -954l-477 -642 642 -477 477 642 -642 477zm1285 -954l-477 -642 642 -477 477 642 -642 477zm1284 -954l-477 -642 642 -477 477 642 -642 477zm907 -12554l-477 643 -643 -477 477 -643 643 477zm-1285 -953l-477 643 -643 -477 477 -643 643 477zm-1285 -953l-477 643 -643 -477 477 -643 643 477zm-1285 -953l-477 643 -643 -477 477 -643 643 477zm-1285 -953l-477 643 -643 -477 477 -643 643 477zm-1285 -953l-477 643 -643 -477 477 -643 643 477zm-1285 -953l-477 643 -642 -477 477 -643 642 477zm-1285 -953l-477 643 -642 -477 477 -643 642 477zm11648 12655c1,-23 5,-45 10,-67l-3562 -2646 -3684 2736 3602 2675 3635 -2699zm931 -376l6566 0 -7098 -5271 -3283 2438 3815 2833zm6566 800l-6730 0 -3732 2772 3365 2499 7098 -5271z"/></g><text x="0" y="60015" fill="#000000" font-size="5px" font-weight="bold" font-family="'Helvetica Neue', Helvetica, Arial-Unicode, Arial, Sans-serif">Created by Olena Panasovska</text><text x="0" y="60020" fill="#000000" font-size="5px" font-weight="bold" font-family="'Helvetica Neue', Helvetica, Arial-Unicode, Arial, Sans-serif">from the Noun Project</text></svg>