<svg xmlns="http://www.w3.org/2000/svg" xmlns:xlink="http://www.w3.org/1999/xlink" xml:space="preserve" version="1.1" style="shape-rendering:geometricPrecision;text-rendering:geometricPrecision;image-rendering:optimizeQuality;" viewBox="0 0 60000 75000" x="0px" y="0px" fill-rule="evenodd" clip-rule="evenodd"><defs><style type="text/css">
   
    .fil0 {fill:black;fill-rule:nonzero}
   
  </style></defs><g><path class="fil0" d="M43630.57 26694.68l7925.71 0c220.91,0 400,179.09 400,400 0,220.91 -179.09,400 -400,400l-7925.71 0 0 2105.31 14809.1 0c220.91,0 400,179.09 400,400 0,220.91 -179.09,400 -400,400l-14809.1 0 0 2105.31 7925.71 0c220.91,0 400,179.09 400,400 0,220.91 -179.09,400 -400,400l-7925.71 0 0 1631.88c0,220.91 -179.09,400 -400,400 -220.91,0 -400,-179.09 -400,-400l0 -9874.37c0,-220.91 179.09,-400 400,-400 220.91,0 400,179.09 400,400l0 1631.87zm-18542.81 -2006.92l2711.91 0 1917.52 -1917.52c156.19,-156.19 409.43,-156.19 565.62,0l1917.52 1917.52 2711.91 0c220.91,0 400,179.09 400,400l0 2711.91 1917.52 1917.52c156.19,156.19 156.19,409.43 0,565.62l-1917.52 1917.52 0 2711.91c0,220.91 -179.09,400 -400,400l-2711.91 0 -1917.52 1917.52c-156.19,156.19 -409.43,156.19 -565.62,0l-1917.52 -1917.52 -2711.91 0c-220.91,0 -400,-179.09 -400,-400l0 -2711.91 -1917.52 -1917.52c-156.19,-156.19 -156.19,-409.43 0,-565.62l1917.52 -1917.52 0 -2711.91c0,-220.91 179.09,-400 400,-400zm3843.15 0l2138.18 0 -1069.09 -1069.09 -1069.09 1069.09zm5581.33 800l-1511.91 0 1511.91 1511.91 0 -1511.91zm-2643.15 0l-3738.18 0 -2643.15 2643.15 0 3738.18 2643.15 2643.15 3738.18 0 2643.15 -2643.15 0 -3738.18 -2643.15 -2643.15zm-4869.42 0l-1511.91 0 0 1511.91 1511.91 -1511.91zm8312.57 3443.15l0 2138.18 1069.09 -1069.09 -1069.09 -1069.09zm-800 5581.33l0 -1511.91 -1511.91 1511.91 1511.91 0zm-3443.15 800l-2138.18 0 1069.09 1069.09 1069.09 -1069.09zm-5581.33 -800l1511.91 0 -1511.91 -1511.91 0 1511.91zm-800 -3443.15l0 -2138.18 -1069.09 1069.09 1069.09 1069.09zm-7518.33 3868.09c0,220.91 -179.09,400 -400,400 -220.91,0 -400,-179.09 -400,-400l0 -1631.88 -7925.71 0c-220.91,0 -400,-179.09 -400,-400 0,-220.91 179.09,-400 400,-400l7925.71 0 0 -2105.3 -14809.09 0c-220.91,0 -400,-179.09 -400,-400 0,-220.91 179.09,-400 400,-400l14809.09 0 0 -2105.32 -7925.71 0c-220.91,0 -400,-179.09 -400,-400 0,-220.91 179.09,-400 400,-400l7925.71 0 0 -1631.87c0,-220.91 179.09,-400 400,-400 220.91,0 400,179.09 400,400l0 9874.37z"/></g><text x="0" y="60015" fill="#000000" font-size="5px" font-weight="bold" font-family="'Helvetica Neue', Helvetica, Arial-Unicode, Arial, Sans-serif">Created by Olena Panasovska</text><text x="0" y="60020" fill="#000000" font-size="5px" font-weight="bold" font-family="'Helvetica Neue', Helvetica, Arial-Unicode, Arial, Sans-serif">from the Noun Project</text></svg>